<svg id="Layer_1" data-name="Layer 1" xmlns="http://www.w3.org/2000/svg" viewBox="0 0 1640 500"><defs><style>.cls-1{fill:#9da739;}</style></defs><title>Logo</title><path class="cls-1" d="M132,177.2q-10.62-11.49-10.63-32.1,0-23.9,16.25-44.77t39.88-20.86q13.88,0,21.53,7.66a29.93,29.93,0,0,1,7.79,13.6l4.75-16.64h25l-16.9,57.32q-2,7-2.84,10.36a24.44,24.44,0,0,0-.86,5.88,12.16,12.16,0,0,0,2.64,7.46c1.76,2.34,4.58,3.5,8.46,3.5q11.35,0,22.78-14.85t11.42-39.43Q261.2,78,230,62.17q-19.54-10-44-10-44.91,0-72.11,27.47-24.57,24.83-24.57,59.56,0,38.57,28.79,61.15,25.49,19.94,62.21,19.94A118.86,118.86,0,0,0,227.26,211a125.41,125.41,0,0,0,24.56-13.87l3.17-2.25,9.64,14.79A142.07,142.07,0,0,1,224,231.81a137.28,137.28,0,0,1-45.36,7.59q-54.81,0-84.92-34.07-25-28.26-25-67Q68.78,95,100,64.94q32.74-31.83,83.86-31.83,41.59,0,68.94,21.79,28.78,23,28.79,61,0,30-18.23,51.44t-41.6,21.46q-12.15,0-18.68-6.87t-6.54-14.13c0-.61,0-1.3.07-2s.1-1.56.19-2.44a55.47,55.47,0,0,1-11.22,15.19,38.76,38.76,0,0,1-26.94,10.17A34.75,34.75,0,0,1,132,177.2ZM195,102.31a14.48,14.48,0,0,0-11.36-4.75q-13.74,0-23.64,17.1t-9.91,33.09q0,9.63,4.43,15.58T167,169.27q14.13,0,23.18-21.46t9-33.74A17.09,17.09,0,0,0,195,102.31Z"/><path class="cls-1" d="M49.76,287.34q17.76-19.08,46.16-19.08,43.71,0,60,38.7,9.24,21.92,9.24,57.71,0,34.74-8.85,58-16.9,44.24-62.07,44.24a63.31,63.31,0,0,1-38.69-12.74Q38.34,441.4,35.83,417H73.34a22.62,22.62,0,0,0,7.13,13.73Q86.28,436,95.92,436q18.61,0,26.15-20.6,4.09-11.36,5.15-33.15a40.64,40.64,0,0,1-11,9.91q-10.58,6.35-26,6.34-22.84,0-40.54-15.78T32,337.2Q32,306.42,49.76,287.34Zm63.33,76q12.81-8.19,12.81-28.4,0-16.23-7.59-25.75t-20.8-9.51A25.83,25.83,0,0,0,81,305.11q-10.83,8.44-10.83,28.66,0,17,6.93,25.55t21.33,8.52A26.36,26.36,0,0,0,113.09,363.35Z"/><path class="cls-1" d="M317,301.8q-8.47,8.32-23.55,29.65a262.29,262.29,0,0,0-25.28,44.05q-8.07,17.83-14.55,43.58t-6.48,42.26H208q1.72-51.51,33.84-107.11,20.75-34.46,34.76-48.07h-95.4l.52-33.81H317Z"/><path class="cls-1" d="M439.28,44.82H560.51V74.69H474.57V113.8H549.9v29.53H474.57v71.28H439.28Z"/><path class="cls-1" d="M650.77,85.94c.42,0,1.37.1,2.83.17v33.68c-2.08-.23-3.93-.38-5.54-.46s-2.92-.11-3.92-.11q-19.85,0-26.65,12.92-3.79,7.26-3.8,22.37v60.1H580.58V88.88H612V110.8q7.6-12.57,13.26-17.19,9.22-7.73,24-7.73Q650.14,85.88,650.77,85.94Z"/><path class="cls-1" d="M754.79,91.43A51.15,51.15,0,0,1,776.52,110a61.79,61.79,0,0,1,10,26q1.32,8.67,1.08,24.95H696.05q.76,18.93,13.14,26.53,7.54,4.74,18.13,4.73,11.23,0,18.26-5.76a27.69,27.69,0,0,0,6.76-8.66H785.9q-1.32,11.19-12.18,22.73-16.9,18.35-47.31,18.34a68.54,68.54,0,0,1-44.28-15.47q-19.18-15.47-19.19-50.34,0-32.67,17.32-50.1t45-17.43A71.52,71.52,0,0,1,754.79,91.43Zm-49.18,28.4q-7,7.19-8.76,19.46h56.64q-.9-13.09-8.76-19.87t-19.49-6.78Q712.58,112.64,705.61,119.83Z"/><path class="cls-1" d="M870.92,90.9a40,40,0,0,1,14.42,13.9v-60h33.33V214.61H886.72V197.19q-7,11.19-16,16.27t-22.38,5.07q-22,0-37.09-17.82T796.17,155q0-32.19,14.82-50.64t39.63-18.46A40.5,40.5,0,0,1,870.92,90.9ZM879,180.47q7.28-10.38,7.27-26.88,0-23.07-11.65-33a25.08,25.08,0,0,0-16.61-6q-14.43,0-21.17,10.9t-6.75,27.05q0,17.43,6.87,27.86t20.82,10.44Q871.72,190.85,879,180.47Z"/><path class="cls-1" d="M1030.48,91.43a51.21,51.21,0,0,1,21.73,18.6,61.65,61.65,0,0,1,10,26q1.33,8.67,1.09,24.95H971.73q.76,18.93,13.15,26.53,7.53,4.74,18.13,4.73,11.24,0,18.25-5.76a27.71,27.71,0,0,0,6.77-8.66h33.56q-1.32,11.19-12.19,22.73-16.89,18.35-47.3,18.34a68.56,68.56,0,0,1-44.29-15.47q-19.18-15.47-19.18-50.34,0-32.67,17.32-50.1t45-17.43A71.55,71.55,0,0,1,1030.48,91.43Zm-49.18,28.4q-7,7.19-8.76,19.46h56.64q-.9-13.09-8.76-19.87t-19.5-6.78Q988.26,112.64,981.3,119.83Z"/><path class="cls-1" d="M1149.78,85.94c.42,0,1.36.1,2.82.17v33.68c-2.07-.23-3.92-.38-5.53-.46s-2.93-.11-3.93-.11q-19.83,0-26.64,12.92-3.81,7.26-3.81,22.37v60.1h-33.1V88.88H1111V110.8q7.62-12.57,13.27-17.19,9.23-7.73,24-7.73Q1149.13,85.88,1149.78,85.94Z"/><path class="cls-1" d="M1205.66,73.88h-33.33V43.55h33.33Zm-33.33,15h33.33V214.61h-33.33Z"/><path class="cls-1" d="M1312.71,134a29.24,29.24,0,0,0-4.74-12.69q-5.55-7.61-17.23-7.61-16.65,0-22.78,16.5-3.24,8.74-3.24,23.24,0,13.8,3.24,22.2,5.89,15.69,22.2,15.69,11.56,0,16.42-6.23t5.9-16.15H1346q-1.15,15-10.85,28.38-15.46,21.57-45.84,21.57t-44.68-18q-14.33-18-14.32-46.67,0-32.34,15.82-50.34t43.64-18q23.67,0,38.74,10.61T1346.39,134Z"/><path class="cls-1" d="M1368.54,45.16h32.3v91.72l41.46-47.42h40.88l-45.06,46.84,46.81,78.31h-40l-30.47-53.72-13.61,14.16v39.56h-32.3Z"/><path class="cls-1" d="M455.52,298.59q20.53-21,52.26-21,42.45,0,62.08,28.15,10.85,15.79,11.64,31.72H546q-3.39-12.22-8.71-18.46-9.48-11.07-28.13-11.07-19,0-29.95,15.63t-11,44.24q0,28.6,11.57,42.85t29.39,14.24q18.27,0,27.87-12.22,5.3-6.59,8.8-19.73h35.3q-4.57,27.81-23.34,45.22t-48.1,17.42q-36.29,0-57.06-23.53t-20.77-64.83Q431.89,322.7,455.52,298.59Z"/><path class="cls-1" d="M712.08,435.47q-15.92,19.65-48.33,19.65t-48.33-19.65q-15.93-19.65-15.92-47.31,0-27.21,15.92-47.14t48.33-19.94q32.41,0,48.33,19.94T728,388.16Q728,415.82,712.08,435.47Zm-26.3-18.17q7.72-10.26,7.73-29.14t-7.73-29.09q-7.72-10.19-22.15-10.19t-22.2,10.19q-7.78,10.2-7.79,29.09t7.79,29.14q7.79,10.24,22.2,10.25T685.78,417.3Z"/><path class="cls-1" d="M856.38,435.47q-15.92,19.65-48.33,19.65t-48.33-19.65q-15.91-19.65-15.92-47.31,0-27.21,15.92-47.14t48.33-19.94q32.41,0,48.33,19.94t15.92,47.14Q872.3,415.82,856.38,435.47Zm-26.3-18.17q7.73-10.26,7.73-29.14t-7.73-29.09q-7.73-10.19-22.14-10.19t-22.21,10.19q-7.79,10.2-7.78,29.09t7.78,29.14q7.78,10.24,22.21,10.25T830.08,417.3Z"/><path class="cls-1" d="M1001.57,338.61q15.38,16.27,15.38,47.76,0,33.21-15,50.64T963.2,454.42q-15.11,0-25.08-7.49a48.46,48.46,0,0,1-10.68-12.11v65.51H894.91V325.12H926.4v18.57a52.72,52.72,0,0,1,11.38-12.92q11-8.41,26.23-8.42Q986.18,322.35,1001.57,338.61Zm-25.23,23.65q-6.71-11.19-21.74-11.19-18.06,0-24.82,17-3.49,9-3.49,22.84,0,21.92,11.76,30.8a27,27,0,0,0,16.55,5.19q13.86,0,21.15-10.62T983,388A49.15,49.15,0,0,0,976.34,362.26Z"/><path class="cls-1" d="M1122.07,327.66a51.12,51.12,0,0,1,21.72,18.6,61.83,61.83,0,0,1,10,26q1.34,8.65,1.09,24.95h-91.58q.77,18.92,13.15,26.53,7.53,4.74,18.13,4.73,11.22,0,18.25-5.77a27.66,27.66,0,0,0,6.77-8.65h33.56q-1.34,11.19-12.19,22.73-16.89,18.33-47.3,18.34a68.56,68.56,0,0,1-44.29-15.47q-19.19-15.48-19.18-50.34,0-32.67,17.32-50.1t45-17.44A71.71,71.71,0,0,1,1122.07,327.66Zm-49.18,28.4q-7,7.19-8.76,19.47h56.64q-.9-13.09-8.76-19.87t-19.5-6.78Q1079.85,348.88,1072.89,356.06Z"/><path class="cls-1" d="M1241.37,322.18l2.82.17V356c-2.08-.23-3.92-.38-5.54-.46s-2.92-.12-3.92-.12q-19.85,0-26.64,12.92-3.81,7.28-3.81,22.38v60.1h-33.11V325.12h31.38V347q7.62-12.57,13.26-17.18,9.24-7.73,24-7.73Q1240.73,322.12,1241.37,322.18Z"/><path class="cls-1" d="M1431.37,284.51a56.21,56.21,0,0,1,29,21.57,75.73,75.73,0,0,1,12.13,27.46,131.93,131.93,0,0,1,3.23,28.14q0,33.92-13.62,57.45-18.48,31.72-57,31.72h-73.31v-170h73.31Q1420.86,281.06,1431.37,284.51Zm-65.14,25.84v111H1399q25.18,0,35.12-24.8,5.43-13.61,5.43-32.41,0-26-8.14-39.86T1399,310.35Z"/><path class="cls-1" d="M1569.54,322.18l2.82.17V356c-2.07-.23-3.92-.38-5.53-.46s-2.93-.12-3.93-.12q-19.83,0-26.64,12.92-3.81,7.28-3.81,22.38v60.1h-33.11V325.12h31.38V347q7.62-12.57,13.27-17.18,9.23-7.73,24-7.73Q1568.9,322.12,1569.54,322.18Z"/><path class="cls-1" d="M1578.13,416.36h34.95v34.49h-34.95Z"/></svg>